<?xml version="1.0" encoding="utf-8"?>
<!-- Generator: Adobe Illustrator 12.0.0, SVG Export Plug-In . SVG Version: 6.00 Build 51448)  -->
<!DOCTYPE svg PUBLIC "-//W3C//DTD SVG 1.1//EN" "http://www.w3.org/Graphics/SVG/1.1/DTD/svg11.dtd" [
	<!ENTITY ns_svg "http://www.w3.org/2000/svg">
	<!ENTITY ns_xlink "http://www.w3.org/1999/xlink">
]>
<svg  version="1.1" id="Layer_1" xmlns="&ns_svg;" xmlns:xlink="&ns_xlink;" width="577.083" height="119.77"
	 viewBox="0 0 577.083 119.77" overflow="visible" enable-background="new 0 0 577.083 119.77" xml:space="preserve">
<path d="M101.912,68.414c0-13.961-7.92-20.168-17.353-20.168c-11.401,0-19.919,7.289-19.919,20.789v48.867H50.948V68.414
	c0-13.961-7.904-20.168-17.345-20.168c-11.405,0-19.926,7.289-19.926,20.789v48.867H0V37.078h13.677v9.613h0.31
	c3.644-8.223,13.534-11.477,21.904-11.477c8.056,0,16.891,2.168,23.427,13.961c4.87-10.242,15.368-13.961,25.858-13.961
	c17.042,0,30.429,10.391,30.429,31.648v51.039h-13.693V68.414z"/>
<path d="M212.485,102.238c-10.642,12.098-21.903,17.527-35.744,17.527c-28.133,0-43.19-20.785-43.19-42.348
	c0-22.961,16.112-42.203,40.903-42.203c24.502,0,41.528,19.082,41.528,47.633h-67.836c2.125,13.805,13.076,23.887,28.44,23.887
	c9.742,0,18.406-4.652,25.4-13.031L212.485,102.238z M200.479,71.363c-1.385-13.348-12.03-23.117-26.173-23.117
	c-16.728,0-24.792,12.098-26.16,23.117H200.479z"/>
<path d="M301.472,0h13.685v117.906h-13.685v-12.41h-0.307c-5.784,8.375-15.812,14.27-29.506,14.27
	c-22.066,0-41.83-17.684-41.83-43.129c0-23.273,18.849-41.422,41.222-41.422c11.7,0,23.566,4.965,30.114,14.582h0.307V0z
	 M273.478,48.246c-18.554,0-29.045,15.043-29.045,28.551c0,18.617,14.146,29.938,28.583,29.938c15.67,0,28.456-13.031,28.456-29.164
	C301.472,61.281,288.38,48.246,273.478,48.246"/>
<path d="M344.818,1.707c5.323,0,9.588,4.34,9.588,9.77c0,5.426-4.265,9.766-9.588,9.766c-5.322,0-9.587-4.34-9.587-9.766
	C335.231,6.047,339.496,1.707,344.818,1.707 M337.972,37.078h13.692v80.828h-13.692V37.078z"/>
<path d="M426.187,108.445h-0.29c-4.105,7.289-12.941,11.324-21.761,11.324c-15.363,0-30.576-8.535-30.576-30.414V37.078h13.689
	v47.004c0,12.105,4.865,22.652,18.414,22.652c12.771,0,20.523-8.84,20.523-24.199V37.078h13.689v80.828h-13.689V108.445z"/>
<path d="M563.39,68.414c0-13.961-7.913-20.168-17.337-20.168c-11.401,0-19.919,7.289-19.919,20.789v48.867h-13.692V68.414
	c0-13.961-7.917-20.168-17.353-20.168c-11.397,0-19.919,7.289-19.919,20.789v48.867h-13.693V37.078h13.693v9.613h0.311
	c3.644-8.223,13.529-11.477,21.903-11.477c8.056,0,16.875,2.168,23.415,13.961c4.874-10.242,15.364-13.961,25.862-13.961
	c17.034,0,30.421,10.391,30.421,31.648v51.039H563.39V68.414z"/>
</svg>
